<svg width="23" height="24" viewBox="0 0 23 24" fill="none" xmlns="http://www.w3.org/2000/svg">
<path d="M11.39 0.605C10.376 3.092 9.764 4.72 8.635 7.132C9.328 7.866 10.178 8.721 11.558 9.686C10.074 9.076 9.062 8.462 8.305 7.826C6.86 10.842 4.595 15.138 0 23.395C3.612 21.309 6.412 20.025 9.02 19.533C8.90261 19.0258 8.84555 18.5066 8.85 17.986L8.853 17.87C8.911 15.556 10.114 13.776 11.54 13.898C12.965 14.018 14.074 15.993 14.018 18.307C14.0093 18.7251 13.9604 19.1413 13.872 19.55C16.452 20.054 19.223 21.337 22.786 23.394C22.084 22.101 21.456 20.935 20.857 19.824C19.914 19.094 18.93 18.142 16.924 17.111C18.304 17.47 19.291 17.883 20.06 18.345C13.97 7.011 13.48 5.504 11.39 0.605Z" fill="white"/>
</svg>

